PathFileType        4      (X/Y/Z)      C:\Users\ibrah\OneDrive - KTH\Model Validation - Orthoload\rmr-solver-1.0 - original\rmr-solver-1.0\ExperimentalData\S8R\trc\transformed_MSbfkg1.trc         
DataRate	CameraRate	NumFrames	NumMarkers	Units	OrigDataRate	OrigDataStartFrame	OrigNumFrames
50.0	50.0	7	27	mm	50.0	299	398
Frame#	Time	IJ			PX			C7			T8			SC			AA			TS			AI			PC			ACv			ACd			GH			EM			EL			EM2			EL2			US			RS			US2			RS2			MCP2			MCP5			SCREWAA			SCREWTS			SCREWAI			ACvloc			ACdloc			
		X1	Y1	Z1	X2	Y2	Z2	X3	Y3	Z3	X4	Y4	Z4	X5	Y5	Z5	X6	Y6	Z6	X7	Y7	Z7	X8	Y8	Z8	X9	Y9	Z9	X10	Y10	Z10	X11	Y11	Z11	X12	Y12	Z12	X13	Y13	Z13	X14	Y14	Z14	X15	Y15	Z15	X16	Y16	Z16	X17	Y17	Z17	X18	Y18	Z18	X19	Y19	Z19	X20	Y20	Z20	X21	Y21	Z21	X22	Y22	Z22	X23	Y23	Z23	X24	Y24	Z24	X25	Y25	Z25	X26	Y26	Z26	X27	Y27	Z27	
299	5.96	-34.12950502867739	-1.475518053387142	2.472621151566362	17.30449395338353	-141.4890224615619	6.943272859474236	-163.0429618687266	85.96496739592362	-5.585544742301895	-231.35864606973	-114.0250510194476	-13.25216380614895	-42.3086203854435	7.562424909233777	26.10863917662055	-151.4418910461569	4.4834058746157	188.9744761016891	-208.1454935485021	8.015346878428998	107.4202539440096	-222.3167607695378	-156.0729510093851	85.28782287755878	-86.45927156847058	9.139618617012719	136.0556024714404	-129.6994558132964	38.5408406076513	170.1405742892577	-129.6994558132964	38.5408406076513	170.1405742892577	-144.5972533437747	-50.7197683664	190.1370414378432	-52.9949383144653	-325.4549025601306	214.1398640109508	-39.62247526361621	-302.8960610575722	281.0905982634081													68.03834953277247	-498.1419033324171	304.3829993248274	26.5955702107273	-512.5792438091165	343.1529148761372																						
300	5.98	-33.74704273238922	-1.365182408059082	3.028255238752506	17.62209306313126	-141.3980133349332	7.606197860627024	-162.6062577483152	86.12365363662346	-5.325927014709996	-230.97951971333	-113.840319555055	-13.17464705241595	-41.97834616241201	7.673898787711898	26.64544248227877	-151.5271087790196	4.440422738082293	189.3272946992962	-207.8933653006817	8.201068201513523	107.5543760345027	-222.3975873024232	-155.8296460628492	85.18578231758265	-86.32518279352166	8.985823059691969	136.6771127459341	-129.6232238134117	38.46221826828645	170.6191363847397	-129.6232238134117	38.46221826828645	170.6191363847397	-144.9765280209155	-50.48555476616612	190.4863168700344	-57.14474264436267	-326.449024127921	214.3114681112492	-44.66027486968215	-304.4219137533929	281.583137818623													61.42041546784178	-500.8175304080759	304.606845645733	19.65975467960162	-514.847431933785	343.1796296543662																						
301	6.0	-33.2233507977178	-1.270769665148283	3.615787472030172	18.04550987569122	-141.3357366900631	8.29442006252472	-162.0060675487954	86.29914751115719	-5.025512793341368	-230.4875863837993	-113.620687232316	-13.05875898622639	-41.50338610169234	7.770891920166788	27.21478120435376	-151.4725230935733	4.405360671005187	189.7157388165547	-207.4908229728133	8.431385971930641	107.7200721788163	-222.4077578407975	-155.5285841506769	85.09623300169865	-86.04511570497937	8.8117149711157	137.3398318572075	-129.3887468514023	38.38142424248445	171.1387518516701	-129.3887468514023	38.38142424248445	171.1387518516701	-145.2611112155036	-50.22039904946066	190.8317694199015	-61.60082766299153	-327.4679060337043	214.4847177785095	-50.08069726777254	-305.9871283805298	282.0834768934583													54.22326282194759	-503.6181497269163	304.8200524219324	12.11212406535841	-517.2024505949566	343.1614825225845																						
302	6.02	-32.55104238715515	-1.197025017322409	4.229071076407243	18.58075213933081	-141.3076417761376	8.995762048469265	-161.2345811360317	86.4885782950263	-4.679999592737548	-229.878079672851	-113.367810633397	-12.89903087877271	-40.87463636077072	7.84832581375916	27.81126840836075	-151.2569458843751	4.381707996016035	190.1411273188872	-206.9234428236776	8.71320482114549	107.9235073515479	-222.3405453644403	-155.1608689461044	85.02413442413274	-85.60226836648349	8.61893903905228	138.0390426526562	-128.9752463866553	38.30112725785575	171.6991899175817	-128.9752463866553	38.30112725785575	171.6991899175817	-145.4333594840341	-49.91835453720677	191.1750849758367	-66.35800582995697	-328.4922666983989	214.6541409885762	-55.85530799273979	-307.5649674747786	282.5793246341473													46.42986395049947	-506.5257786638441	305.0055536091834	3.940885455546826	-519.6187369454644	343.0878628223076																						
303	6.04	-31.72576696557419	-1.14739142636153	4.861597341428425	19.23244937962457	-141.3172715563736	9.698500694715332	-160.2880072638822	86.68881385133334	-4.287393167087219	-229.147712037541	-113.084484475441	-12.6932412624703	-40.08649319626681	7.902332065352379	28.42903274298894	-150.8646625260594	4.374297875938086	190.6026135307886	-206.180411192634	9.053844360400895	108.1674149057241	-222.190183278821	-154.7174864967207	84.97090223474096	-84.98420001197655	8.41121885475953	138.7694247669322	-128.3674416218872	38.22559592135849	172.2985380079138	-128.3674416218872	38.22559592135849	172.2985380079138	-145.4805117785838	-49.57175405415735	191.5180926866741	-71.40898921386912	-329.4980404850697	214.8118031604699	-61.95151428375948	-309.1240998629829	283.056116776964													38.02715931058908	-509.5161684920468	305.1457068815758	-4.860949074310385	-522.064354332418	342.9485033601637																						
304	6.06	-30.74640882337038	-1.123672137095459	5.506730136795962	20.00367738567751	-141.3658943850756	10.39222933595476	-159.1667497488639	86.89671735457941	-3.848568747240795	-228.2947382708247	-112.7744502930956	-12.44267094691285	-39.13715055541135	7.930658654981963	29.06188772635396	-150.2865190606922	4.389671527520655	191.0967936017139	-205.2550367730438	9.461029250236837	108.4503664374824	-221.9519158755628	-154.1894591305258	84.93400259248483	-84.18361947320827	8.194686017247767	139.5251499664009	-127.5565896041192	38.16105584287934	172.9328936716645	-127.5565896041192	38.16105584287934	172.9328936716645	-145.3955533827564	-49.17077058295642	191.8624446001566	-76.74466579531077	-330.4561694109523	214.9473409894215	-68.33447235640418	-310.628764048777	283.4974196098954													29.00680769633239	-512.557886968234	305.2229746443656	-14.29517422935607	-524.5005844253817	342.733529617999																						
305	6.08	-29.61510168982348	-1.125788689388957	6.157931974983624	20.89583325019698	-141.4522783992978	11.06861123173944	-157.8753186972866	87.10943290000232	-3.367660881047819	-227.3189555476344	-112.4421031669364	-12.15215789674032	-38.02867567094974	7.93298280513498	29.70350421774692	-149.5205837782747	4.436347958825412	191.6174373224824	-204.145002034707	9.942863783616904	108.7662865997382	-221.622007134348	-153.5679837438099	84.90677835812066	-83.19885913463617	7.978059373284837	140.2999636660466	-126.5411049436974	38.11593246570403	173.5961419923397	-126.5411049436974	38.11593246570403	173.5961419923397	-145.177672137464	-48.70309076669663	192.2092683525599	-82.35441858045725	-331.3326719007928	215.0481735935868	-74.96906196139552	-312.0391427480269	283.8854583055577													19.36572522552217	-515.6117761304771	305.2206235755013	-24.35824273503107	-526.8818576013389	342.4334936213589																						
